<svg xmlns="http://www.w3.org/2000/svg" width="28" height="32" viewBox="0 0 28 32">
    <path fill="#3D3D55" fill-rule="evenodd" d="M27.136 29.473c0 .913-.737 1.656-1.643 1.656h-3.458a1.651 1.651 0 0 1-1.64-1.656v-8.364c0-.913.736-1.656 1.64-1.656h3.458c.906 0 1.643.743 1.643 1.656V29.473zm-24.63-10.02h3.458c.905 0 1.642.743 1.642 1.656v8.364c0 .913-.737 1.656-1.642 1.656H2.506a1.651 1.651 0 0 1-1.643-1.656V21.109c0-.913.737-1.656 1.643-1.656zM28 29.473V14.138a.409.409 0 0 0-.012-.09C27.956 6.295 21.69 0 13.994 0 6.277 0 0 6.329 0 14.138V29.473C0 30.867 1.124 32 2.506 32h3.458a2.519 2.519 0 0 0 2.506-2.527v-8.364c0-1.393-1.123-2.527-2.506-2.527H2.506c-.63 0-1.202.244-1.643.633v-5.107C.863 6.809 6.753.87 13.993.87c7.24 0 13.13 5.938 13.13 13.237 0 .025.005.057.013.09v5.017a2.477 2.477 0 0 0-1.643-.633h-3.458c-1.382 0-2.505 1.134-2.505 2.527v8.364c0 1.394 1.123 2.527 2.505 2.527h3.458A2.519 2.519 0 0 0 28 29.473z"/>
</svg>
