<svg xmlns="http://www.w3.org/2000/svg" width="30" height="25" viewBox="0 0 30 25">
    <path fill="#3D3D55" fill-rule="evenodd" d="M29.176 22.219H18.052c-1.206 0-1.983.66-2.641 1.34V2.538c.103-.105.203-.213.305-.322.7-.75 1.302-1.397 2.336-1.397h11.124v21.4zm-17.229 0H.823V.819h11.124c1.034 0 1.637.646 2.335 1.395.102.11.203.218.306.324V23.56c-.657-.68-1.435-1.341-2.64-1.341zM29.588 0H18.052c-1.394 0-2.216.882-2.941 1.66l-.112.117c-.037-.04-.076-.078-.113-.119C14.162.881 13.34 0 11.947 0H.411A.41.41 0 0 0 0 .41v22.218c0 .226.184.41.411.41h11.536c1.034 0 1.637.646 2.335 1.395.14.15.281.3.424.445.004.004.01.005.014.01a.403.403 0 0 0 .123.08v.002a.429.429 0 0 0 .313 0v-.001l.006-.003a.429.429 0 0 0 .118-.079c.004-.004.01-.005.013-.009.143-.145.283-.294.423-.444.7-.75 1.302-1.397 2.336-1.397h11.536a.41.41 0 0 0 .412-.409V.409A.412.412 0 0 0 29.588 0z"/>
</svg>
